#!OML:ASF X:\für Bonn\!DataBase\2005_08_10_Bjorn_Final\c3d\bjorn.ASF
:FULLY-SPECIFIED
:DEGREES
123
root -19.8845 19.3565 -0.374814 1446.79 -75.9906 -7.56929
lowerback -7.52143 6.4718 -3.11174
upperback 6.09795 9.64425 -7.94412
thorax 11.8014 4.68256 -5.23449
lowerneck -0.581603 -11.9601 4.04053
upperneck 5.68573 -16.4696 5.34564
head 2.04251 -8.06454 0.692625
rclavicle -2.46493e-014 4.13472e-014
rhumerus 30.2175 0.706762 -32.6577
rradius 46.0295
rwrist -29.8215
rhand 8.8593 6.39518
rfingers 7.12502
rthumb 34.0436 -20.3789
lclavicle -2.46493e-014 4.13472e-014
lhumerus -29.7718 -2.67946 82.0846
lradius 29.2926
lwrist -6.46639
lhand -25.3662 -6.29391
lfingers 7.12502
lthumb 1.15786 23.6827
rfemur -8.03625 -0.213918 15.8856
rtibia 32.3906
rfoot -16.012 17.7173
rtoes -8.06973
lfemur -11.1404 4.54993 -17.001
ltibia 29.3938
lfoot -7.30642 -18.8172
ltoes 2.31937
124
root -19.9036 19.3566 -0.38753 1446.42 -75.7617 -7.19105
lowerback -7.53553 6.47388 -3.14711
upperback 6.07145 9.65256 -7.96669
thorax 11.7788 4.68506 -5.23748
lowerneck -0.516004 -11.9653 4.0169
upperneck 5.72411 -16.478 5.38477
head 2.04998 -8.06841 0.710202
rclavicle 7.95139e-016 -3.81667e-014
rhumerus 29.957 0.741613 -32.6665
rradius 45.9852
rwrist -29.8567
rhand 9.15042 6.63233
rfingers 7.12502
rthumb 34.3201 -20.0798
lclavicle 7.95139e-016 -3.81667e-014
lhumerus -29.9159 -2.28789 81.7076
lradius 29.0865
lwrist -7.30616
lhand -25.1582 -6.16124
lfingers 7.12502
lthumb 1.35876 23.8142
rfemur -7.88567 -0.0155263 15.7901
rtibia 32.4453
rfoot -15.9932 17.8522
rtoes -8.53099
lfemur -11.0796 4.51613 -17.0058
ltibia 29.3216
lfoot -7.24019 -19.0593
ltoes 2.49789
125
root -19.9202 19.3562 -0.400119 1445.97 -75.5292 -6.73343
lowerback -7.54153 6.46645 -3.16908
upperback 6.04943 9.64781 -8.01417
thorax 11.7632 4.68367 -5.27872
lowerneck -0.469079 -11.9646 4.0221
upperneck 5.77256 -16.4811 5.41927
head 2.06099 -8.06864 0.720885
rclavicle 7.55382e-014 -9.54166e-014
rhumerus 29.7787 0.702181 -32.7692
rradius 45.9173
rwrist -29.9943
rhand 9.42933 6.76531
rfingers 7.12502
rthumb 34.5849 -19.8867
lclavicle 7.55382e-014 -9.54166e-014
lhumerus -30.0198 -1.92096 81.2947
lradius 28.8683
lwrist -8.18345
lhand -24.927 -6.12745
lfingers 7.12502
lthumb 1.58203 23.8464
rfemur -7.7435 0.0863025 15.6579
rtibia 32.5075
rfoot -15.9262 18.0961
rtoes -8.8279
lfemur -11.0314 4.43099 -17.041
ltibia 29.2517
lfoot -7.1528 -19.2515
ltoes 2.69064
126
root -19.9355 19.3559 -0.414024 1445.7 -75.2991 -6.45685
lowerback -7.55766 6.45569 -3.17428
upperback 6.02995 9.63582 -8.02798
thorax 11.7515 4.67865 -5.29199
lowerneck -0.442178 -11.9583 3.98962
upperneck 5.84109 -16.4776 5.44271
head 2.08412 -8.06506 0.731549
rclavicle -4.21423e-014 -2.22639e-014
rhumerus 29.6367 0.723517 -32.7821
rradius 45.8746
rwrist -30.2218
rhand 9.57745 6.90575
rfingers 7.12502
rthumb 34.7255 -19.714
lclavicle -4.21423e-014 -2.22639e-014
lhumerus -30.146 -1.60863 80.9306
lradius 28.6847
lwrist -8.98268
lhand -24.705 -6.11734
lfingers 7.12502
lthumb 1.79644 23.8548
rfemur -7.58572 0.254254 15.5911
rtibia 32.5618
rfoot -15.8837 18.2958
rtoes -9.35969
lfemur -10.9793 4.36006 -17.0231
ltibia 29.1811
lfoot -7.08539 -19.4558
ltoes 2.86018
